<?xml version="1.0" encoding="utf-8"?><!-- Generator: Adobe Illustrator 23.0.3, SVG Export Plug-In . SVG Version: 6.00 Build 0)  -->
<svg version="1.1" id="Layer_1" xmlns="http://www.w3.org/2000/svg" x="0px" y="0px" viewBox="0 0 119 45"
    style="enable-background:new 0 0 119 45;" xml:space="preserve">
<style type="text/css">
	.st0{fill:white;}
	.st1{fill:#93C139;}
</style>
    <g>
	<path class="st0" d="M0.3,44.7C0.1,44.5,0,44.2,0,43.8V41c0-0.3,0.1-0.6,0.3-0.9c0.2-0.2,0.5-0.4,0.8-0.4h1.2
		c1.3,0,2.2-0.4,2.6-1.1c0.4-0.7,0.7-1.8,0.7-3.2V10.6c0-0.4,0.1-0.7,0.3-0.9c0.2-0.2,0.5-0.3,0.8-0.3h4.1c0.3,0,0.6,0.1,0.8,0.3
		c0.2,0.2,0.3,0.5,0.3,0.9v24.9c0,3-0.8,5.3-2.3,7C8.1,44.2,5.9,45,2.9,45H1.1C0.8,45,0.5,44.9,0.3,44.7z" />
        <path class="st0" d="M18.2,31.5c-1.6-1.9-2.4-4.4-2.4-7.7V10.8c0-0.3,0.1-0.6,0.3-0.8c0.2-0.2,0.5-0.3,0.8-0.3l4.1,0
		c0.3,0,0.5,0.1,0.7,0.3c0.3,0.2,0.4,0.5,0.4,0.9v12.8c0,3.8,1.6,5.7,4.8,5.7c1.6,0,2.8-0.5,3.7-1.5s1.4-2.4,1.4-4.2V10.8
		c0-0.3,0.1-0.6,0.3-0.8c0.2-0.2,0.5-0.3,0.8-0.3h4.1c0.3,0,0.6,0.1,0.8,0.3c0.2,0.2,0.3,0.5,0.3,0.8v22c0,0.3-0.1,0.6-0.3,0.8
		c-0.2,0.2-0.5,0.3-0.8,0.3h-3.6c-0.3,0-0.6-0.1-0.8-0.3s-0.3-0.5-0.3-0.8v-1.9c-1.7,2.3-4.2,3.5-7.6,3.5
		C22.1,34.3,19.8,33.4,18.2,31.5z" />
        <path class="st0" d="M42.8,33.5c-0.2-0.2-0.3-0.5-0.3-0.8v-22c0-0.3,0.1-0.6,0.3-0.8c0.2-0.2,0.5-0.3,0.8-0.3h3.6
		c0.3,0,0.6,0.1,0.8,0.3c0.2,0.2,0.3,0.5,0.3,0.8v1.6c1.6-2.1,3.8-3.1,6.6-3.1c3.4,0,5.7,1.4,7.1,4.1c0.7-1.2,1.8-2.2,3.1-3
		c1.3-0.8,2.8-1.1,4.3-1.1c2.5,0,4.5,0.9,6.1,2.6c1.6,1.7,2.4,4.2,2.4,7.5v13.2c0,0.3-0.1,0.6-0.3,0.8c-0.2,0.2-0.5,0.3-0.8,0.3
		h-3.7c0,0-0.6,0-0.8-0.2c-0.2-0.2-0.3-0.5-0.3-0.8v-13c-0.1-2-0.5-3.4-1.3-4.2c-0.8-0.9-1.9-1.3-3.2-1.3c-1.2,0-2.2,0.4-3,1.3
		c-0.8,0.9-1.3,2.3-1.3,4.2v13c0,0.3-0.1,0.6-0.3,0.8c-0.2,0.2-0.8,0.4-0.8,0.4h-3.9c-0.3,0-0.6-0.1-0.8-0.3
		c-0.2-0.2-0.3-0.5-0.3-0.8v-13c0-1.9-0.4-3.3-1.2-4.2c-0.8-0.9-1.9-1.3-3.2-1.3c-1.2,0-2.2,0.4-3.1,1.3s-1.3,2.3-1.3,4.2v13
		c0,0.3-0.1,0.6-0.3,0.8c-0.2,0.2-0.5,0.3-0.8,0.3h-3.9C43.3,33.9,43,33.8,42.8,33.5z" />
        <path class="st1" d="M82.3,33.5c-0.2-0.2-0.3-0.5-0.3-0.8v-22c0-0.3,0.1-0.6,0.3-0.8c0.2-0.2,0.5-0.3,0.8-0.3l3.8,0
		c0.3,0,0.5,0.1,0.7,0.3c0.3,0.2,0.4,0.5,0.4,0.9v22c0,0.3-0.1,0.6-0.4,0.9c-0.2,0.2-0.5,0.3-0.7,0.3h-3.8
		C82.8,33.9,82.6,33.8,82.3,33.5z" />
        <path class="st0" d="M94.5,31.5c-1.9-1.9-3-4.4-3.2-7.7l0-2l0-2c0.2-3.3,1.2-5.8,3.2-7.7c2-1.9,4.7-2.8,8.3-2.8
		c3.5,0,6.2,0.9,8.2,2.8c2,1.9,3,4.4,3.2,7.7c0,0.4,0,1.1,0,2c0,1,0,1.7,0,2c-0.2,3.3-1.2,5.9-3.2,7.7c-1.9,1.9-4.7,2.8-8.3,2.8
		C99.2,34.2,96.4,33.3,94.5,31.5z M106.5,28c0.9-1,1.3-2.5,1.4-4.5c0-0.3,0-0.9,0-1.8s0-1.5,0-1.8c-0.1-2-0.5-3.5-1.4-4.5
		c-0.9-1-2.1-1.6-3.7-1.6c-1.6,0-2.9,0.5-3.7,1.6c-0.9,1-1.4,2.6-1.4,4.5l0,1.8l0,1.8c0.1,2,0.5,3.5,1.4,4.5c0.9,1,2.1,1.5,3.7,1.5
		C104.4,29.5,105.7,29,106.5,28z" />
        <path class="st1" d="M82.1,5.4c-0.2-0.2-0.3-0.5-0.3-0.8V1.2c0-0.3,0.1-0.6,0.3-0.8S82.6,0,82.9,0h4.3c0.3,0,0.6,0.1,0.8,0.3
		s0.3,0.5,0.3,0.8v3.4c0,0.3-0.1,0.6-0.3,0.8s-0.5,0.3-0.8,0.3h-4.3C82.6,5.7,82.3,5.6,82.1,5.4z" />
        <path class="st0" d="M6.5,5.7c-0.3,0-0.5-0.1-0.7-0.3C5.5,5.2,5.3,4.9,5.3,4.6V1.2c0-0.3,0.1-0.6,0.3-0.8S6.1,0,6.5,0h4.3
		c0.3,0,0.6,0.1,0.8,0.3s0.3,0.5,0.3,0.8v3.4c0,0.3-0.1,0.6-0.3,0.8S11,5.7,10.7,5.7L6.5,5.7z" />
        <g>
		<path class="st0" d="M116.9,29.4c1.2,0,2.2,1,2.1,2.3c0,1.2-1.1,2.2-2.3,2.1c-1.1-0.1-2-1-2-2.2C114.7,30.4,115.6,29.4,116.9,29.4
			L116.9,29.4z M116.8,29.9c-0.8,0-1.4,0.5-1.6,1.3c-0.3,1.3,0.5,2.3,1.7,2.3c0.9,0,1.7-0.8,1.7-1.8S117.8,29.9,116.8,29.9
			L116.8,29.9z M116.5,32.9H116v-2.3c0.3,0,0.5-0.1,0.8-0.1c0.4,0,0.6,0.1,0.7,0.2c0.1,0.1,0.2,0.3,0.2,0.5c0,0.3-0.3,0.5-0.3,0.5v0
			c0,0,0.2,0.3,0.2,0.6c0.1,0.3,0.1,0.5,0.2,0.6h-0.4c-0.1-0.1-0.1-0.3-0.2-0.6c-0.1-0.3-0.2-0.4-0.5-0.4h-0.2L116.5,32.9
			L116.5,32.9z M116.5,31.6h0.3c0.3,0,0.6-0.1,0.6-0.4c0-0.2-0.1-0.4-0.5-0.4c-0.2,0-0.3,0-0.3,0L116.5,31.6L116.5,31.6z" />
	</g>
</g>
</svg>
